<svg width="22" height="22" viewBox="0 0 22 22" fill="none" xmlns="http://www.w3.org/2000/svg">
<path d="M19.5312 0.00390625H2.34375C1.72215 0.00390625 1.12601 0.250836 0.686468 0.690375C0.24693 1.12991 0 1.72606 0 2.34766L0 19.5352C0 20.1568 0.24693 20.7529 0.686468 21.1924C1.12601 21.632 1.72215 21.8789 2.34375 21.8789H9.04541V14.4419H5.96924V10.9414H9.04541V8.27344C9.04541 5.23877 10.8521 3.5625 13.6191 3.5625C14.9443 3.5625 16.3301 3.79883 16.3301 3.79883V6.77734H14.8032C13.2988 6.77734 12.8296 7.71094 12.8296 8.66846V10.9414H16.188L15.6509 14.4419H12.8296V21.8789H19.5312C20.1529 21.8789 20.749 21.632 21.1885 21.1924C21.6281 20.7529 21.875 20.1568 21.875 19.5352V2.34766C21.875 1.72606 21.6281 1.12991 21.1885 0.690375C20.749 0.250836 20.1529 0.00390625 19.5312 0.00390625Z" fill="#FFF"/>
</svg>
