<svg width="235" height="274" viewBox="0 0 335 374" fill="none" xmlns="http://www.w3.org/2000/svg">
<path d="M293.841 297.99H241.024C241.024 399.873 93.2889 398.799 93.2889 297.99L80 300H63.5L58.5 297.99H43L34 300H24V297.99H-20V185.382H-12.3453V144.782L303 37.5L299.965 29.1095L-12.3453 135.589V108.778L328.287 0C336.86 3.67699 335.431 27.5774 333.645 39.068L306.088 115.672C309.15 118.736 308.385 123.077 307.619 124.865C291.545 149.378 282.359 144.782 286.952 150.91C290.626 155.813 297.158 155.506 299.965 154.74V164.699C280.828 165.465 279.297 162.401 273.939 157.038C268.581 151.676 270.877 138.653 279.297 135.589C286.033 133.138 290.779 127.418 292.31 124.865C292.31 118.123 295.882 114.906 297.668 114.14L320.632 47.4945L236.431 187.317L275.47 203.767L282.5 261.196L293.841 274.206V297.99Z" fill="#780002" fill-opacity="0.34"/>
<path d="M191.267 124.864L105.918 185.382H224.182L308.384 45.1963L201.218 102.649L191.267 124.864Z" fill="#FF3337"/>
</svg>
