<svg width="15" height="17" viewBox="0 0 15 17" fill="none" xmlns="http://www.w3.org/2000/svg">
<path d="M7.5 0.0966797C10.2965 0.0966797 8.2691 7.21625 8.2691 7.21625C8.2691 7.21625 13.4211 1.90065 14.8194 4.32253C16.2177 6.7444 9.03821 8.54838 9.03821 8.54838C9.03821 8.54838 16.2177 10.3524 14.8194 12.7742C13.4211 15.1961 8.2691 9.88051 8.2691 9.88051C8.2691 9.88051 10.2965 17.0001 7.5 17.0001C4.70346 17.0001 6.7309 9.88051 6.7309 9.88051C6.7309 9.88051 1.57889 15.1961 0.180616 12.7742C-1.21765 10.3524 5.96179 8.54838 5.96179 8.54838C5.96179 8.54838 -1.21765 6.7444 0.180616 4.32253C1.57889 1.90065 6.7309 7.21625 6.7309 7.21625C6.7309 7.21625 4.70346 0.0966797 7.5 0.0966797Z" fill="white"/>
</svg>
