<svg width="23" height="22" viewBox="0 0 23 22" fill="none" xmlns="http://www.w3.org/2000/svg">
<path d="M21.0747 0.00390625H2.31982C1.46045 0.00390625 0.762207 0.711914 0.762207 1.58105V20.3018C0.762207 21.1709 1.46045 21.8789 2.31982 21.8789H21.0747C21.9341 21.8789 22.6372 21.1709 22.6372 20.3018V1.58105C22.6372 0.711914 21.9341 0.00390625 21.0747 0.00390625ZM7.37353 18.7539H4.13135V8.31445H7.37842V18.7539H7.37353ZM5.75244 6.88867C4.7124 6.88867 3.87256 6.04395 3.87256 5.00879C3.87256 3.97363 4.7124 3.12891 5.75244 3.12891C6.7876 3.12891 7.63232 3.97363 7.63232 5.00879C7.63232 6.04883 6.79248 6.88867 5.75244 6.88867ZM19.5269 18.7539H16.2847V13.6758C16.2847 12.4648 16.2603 10.9072 14.6001 10.9072C12.9106 10.9072 12.6519 12.2256 12.6519 13.5879V18.7539H9.40967V8.31445H12.52V9.74023H12.564C12.9985 8.91992 14.0581 8.05566 15.6353 8.05566C18.9165 8.05566 19.5269 10.2187 19.5269 13.0312V18.7539Z" fill="#FFF"/>
</svg>
