<svg width="20" height="26" viewBox="0 0 20 26" fill="none" xmlns="http://www.w3.org/2000/svg">
<path d="M7.69265 25.3078C14.49 25.3078 20.0003 19.7974 20.0003 13.0001C20.0003 6.20272 14.49 0.692383 7.69265 0.692383C4.84048 0.692383 2.2149 1.66256 0.12793 3.29091C3.57258 5.70738 8.43112 13.0017 0.308035 22.8471C2.36505 24.3922 4.92193 25.3078 7.69265 25.3078Z" fill="#FF3337"/>
<path d="M10.7521 24.8008C15.6378 11.1364 5.92741 4.67632 0 3.1543C3.38462 8.38507 6.91765 14.8645 0.307692 22.8466C4.30769 25.9235 9.13556 25.4773 10.7521 24.8008Z" fill="#009246"/>
<path d="M11.0644 24.8023C15.6502 11.1795 5.66922 4.73907 0.105469 3.22168C4.03943 7.09944 10.3563 16.8444 4.15183 24.8023C5.83782 25.4767 9.54698 25.4767 11.0644 24.8023Z" fill="white"/>
</svg>
