<svg width="122" height="272" viewBox="0 0 122 272" fill="none" xmlns="http://www.w3.org/2000/svg">
<path d="M32.1396 83.9802C26.0253 69.1751 40.8423 54.3581 55.6474 60.4724L90.555 74.8886L121.667 8.00027e-06L152.779 74.8886L227.733 43.934L196.779 118.888L271.667 150L196.779 181.112L211.195 216.02C217.309 230.825 202.492 245.642 187.687 239.528L152.779 225.111L138.29 259.989C132.144 274.781 111.19 274.781 105.045 259.989L90.555 225.111L55.6474 239.528C40.8423 245.642 26.0253 230.825 32.1396 216.02L46.5558 181.112L11.6786 166.623C-3.1137 160.477 -3.11368 139.523 11.6786 133.377L46.5558 118.888L32.1396 83.9802Z" fill="#8B0204"/>
</svg>
