<svg width="282" height="253" viewBox="0 0 282 253" fill="none" xmlns="http://www.w3.org/2000/svg">
<path d="M259.124 11.6914C289.681 50.8026 167.957 100.241 167.957 100.241C167.957 100.241 298.593 114.213 280 160.232C261.407 206.25 157.73 125.553 157.73 125.553C157.73 125.553 210.948 245.673 161.798 252.581C112.649 259.488 130.696 129.353 130.696 129.353C130.696 129.353 53.2779 235.501 22.7209 196.39C-7.83607 157.279 113.888 107.84 113.888 107.84C113.888 107.84 -16.7478 93.8683 1.84495 47.8496C20.4377 1.83095 124.115 82.5279 124.115 82.5279C124.115 82.5279 70.8968 -37.592 120.047 -44.4996C169.196 -51.4071 151.149 78.7285 151.149 78.7285C151.149 78.7285 228.567 -27.4197 259.124 11.6914Z" fill="#780002" fill-opacity="0.35"/>
</svg>
