<svg width="146" height="292" viewBox="0 0 146 292" fill="none" xmlns="http://www.w3.org/2000/svg">
<path d="M39.9341 39.9341C75.0297 4.83845 138.934 119.63 138.934 119.63C138.934 119.63 136.881 -11.7346 184.823 1.11127C232.764 13.9572 165.304 126.696 165.304 126.696C165.304 126.696 278.043 59.2357 290.889 107.177C303.735 155.119 172.37 153.066 172.37 153.066C172.37 153.066 287.162 216.97 252.066 252.066C216.97 287.162 153.066 172.37 153.066 172.37C153.066 172.37 155.119 303.735 107.177 290.889C59.2356 278.043 126.696 165.304 126.696 165.304C126.696 165.304 13.9571 232.765 1.1112 184.823C-11.7347 136.881 119.63 138.934 119.63 138.934C119.63 138.934 4.83839 75.0298 39.9341 39.9341Z" fill="#8B0204"/>
</svg>
