<svg width="292" height="292" viewBox="0 0 292 292" fill="none" xmlns="http://www.w3.org/2000/svg">
<path d="M40.1225 40.1226C75.2182 5.02692 139.123 119.819 139.123 119.819C139.123 119.819 137.07 -11.5462 185.011 1.29974C232.953 14.1457 165.493 126.885 165.493 126.885C165.493 126.885 278.231 59.4242 291.077 107.366C303.923 155.307 172.558 153.254 172.558 153.254C172.558 153.254 287.35 217.159 252.255 252.255C217.159 287.35 153.254 172.558 153.254 172.558C153.254 172.558 155.307 303.923 107.366 291.077C59.4241 278.232 126.885 165.493 126.885 165.493C126.885 165.493 14.1456 232.953 1.29967 185.011C-11.5462 137.07 119.819 139.123 119.819 139.123C119.819 139.123 5.02686 75.2183 40.1225 40.1226Z" fill="#780002" fill-opacity="0.35"/>
</svg>
